<svg xmlns="http://www.w3.org/2000/svg" width="62.667" height="81.333" viewBox="0 0 62.666668 81.333336"><path d="M6.28 77.789c-1.759-2.684-2.071-6.894-1.805-24.334.199-13.064-.222-22.102-1.106-23.754C1.62 26.436-.3 14.367.929 14.367c.488 0 3.212 1.338 6.053 2.973 3.814 2.195 6.15 5.037 8.93 10.867l3.766 7.895.667-17.2L21.01 1.7l9-.395 9-.394.042 16.394.042 16.395 3.341-5.334c2.352-3.754 3.129-6.47 2.624-9.173-.475-2.54.19-5.312 1.966-8.183 1.476-2.389 2.312-5.31 1.858-6.493C47.497.903 53.156 1.95 56.248 5.88c3.875 4.927 3.63 11.811-.558 15.693-4.326 4.009-7.279 11.21-6.426 15.67.529 2.764 1.667 3.73 5.174 4.387 8.166 1.532 11.164 10.418 5.81 17.224-1.861 2.366-4.038 3.513-6.667 3.513-3.828 0-3.903.137-3.903 7.127 0 10.953-1.174 11.54-23.074 11.54-17.808 0-18.243-.07-20.324-3.245zm39.131-1.022c1.09-1.09 1.6-7.466 1.6-20v-18.4h-40v18.4c0 12.534.51 18.91 1.6 20 2.217 2.217 34.583 2.217 36.8 0zM58.25 57.605c4.804-4.803.745-13.904-6.201-13.904-2.008 0-2.37 1.222-2.37 8 0 7.581.17 8 3.238 8 1.781 0 4.181-.943 5.333-2.096zM16.345 34.981c0-.396-1.218-3.108-2.707-6.026-2.357-4.62-3.046-5.124-5.333-3.9-3.045 1.63-3.192 2.614-1.08 7.25 1.13 2.478 2.57 3.396 5.334 3.396 2.082 0 3.786-.324 3.786-.72zm20-1.854c0-1.606-1.13-2.796-3-3.164l-3-.59 3-.992c1.698-.561 3-2.081 3-3.503 0-1.912-.973-2.51-4.08-2.51-2.379 0-3.734-.556-3.254-1.334.454-.733 2.289-1.333 4.079-1.333 4.088 0 4.277-2.28.255-3.072l-3-.59 3-.991c4.313-1.426 3.693-3.347-1.08-3.347-2.379 0-3.734-.556-3.254-1.334.454-.733 2.289-1.333 4.079-1.333 2.366 0 3.255-.728 3.255-2.667 0-2.31-.89-2.666-6.667-2.666h-6.667v32h6.667c5.698 0 6.667-.375 6.667-2.574zm11.204-3.653c1.167-3.424 1.92-6.427 1.674-6.673-.246-.246-2.082 2.556-4.08 6.226-2.78 5.108-3.172 6.674-1.674 6.674 1.14 0 2.845-2.604 4.08-6.227zm-39.957-8.58c-1.164-1.882-3.247-1.392-3.247.765 0 1.19.782 1.658 1.992 1.193 1.096-.42 1.66-1.301 1.255-1.958zm47.943-3.302c1.285-3.348.951-6.522-.96-9.136-1.642-2.245-1.986-2.057-4.736 2.604-1.63 2.764-2.653 5.84-2.272 6.833.96 2.503 6.98 2.275 7.968-.301z"/></svg>