<svg xmlns="http://www.w3.org/2000/svg" width="66.667" height="72" viewBox="0 0 66.666664 72"><path d="M0 65.283c0-3.526.75-7.433 1.667-8.681.916-1.248 6.166-4.016 11.666-6.15 11.252-4.368 12.635-6.549 7.542-11.889-4.473-4.689-6.208-9.634-6.208-17.688C14.667 9.352 21.09 1.18 31.029.06c7.28-.82 13.055 1.927 16.68 7.937 5.546 9.195 4.694 22.416-1.904 29.531-5.423 5.85-3.876 8.506 7.528 12.928 5.5 2.133 10.75 4.899 11.667 6.147.917 1.248 1.667 5.155 1.667 8.681v6.412H0zm64-.315c0-4.3-5.272-8.488-15.013-11.927C41.044 50.237 40 49.47 40 46.438c0-3.228-.392-3.429-6.663-3.42-6.23.01-6.662.228-6.666 3.375-.004 2.963-1.183 3.804-9.869 7.034C6.087 57.41 4.682 58.516 3.296 64.036l-.918 3.659h30.81C63.34 67.695 64 67.636 64 64.968zM40.648 36.804C44.016 34.156 48 27.074 48 23.738c0-.757-1.434-1.376-3.186-1.376s-4.58-1.13-6.285-2.51c-2.788-2.258-3.402-2.313-6.097-.548-1.648 1.08-5.635 2.004-8.86 2.052-5.864.089-5.864.089-4.926 4.245 2.804 12.436 13.507 17.886 22.002 11.203zM28.666 16.26c2.2-1.147 4.515-3.006 5.144-4.131.954-1.705 1.776-1.355 4.926 2.093 2.08 2.277 4.983 4.14 6.453 4.14 2.388 0 2.525-.424 1.282-3.988C42.05 1.69 26.63.164 20.605 11.815c-3.375 6.526.243 8.521 8.061 4.445z"/></svg>