<svg xmlns="http://www.w3.org/2000/svg" width="50.667" height="48" viewBox="0 0 50.666668 48"><path d="M5.818 36.44c.26-7.773.931-11.739 2.052-12.11 1.235-.41 1.667 2.064 1.667 9.559V44h4c3.96 0 4-.074 4-7.333v-7.334h16v7.334c0 7.259.04 7.333 4 7.333h4V33.889c0-7.495.431-9.968 1.666-9.56 1.121.372 1.793 4.338 2.052 12.112L45.641 48H29.537v-7.333c0-7.26-.04-7.334-4-7.334s-4 .074-4 7.334V48H5.433zM.203 24.973C.203 22.534 23.187 0 25.674 0c1.147 0 2.499.414 3.005.92.506.506 3.953.759 7.66.562l6.74-.357-.36 6.777c-.321 6.053.095 7.247 3.896 11.168 3.99 4.116 5.493 7.597 3.281 7.597-.535 0-6.235-5.238-12.666-11.64L25.537 3.39 13.844 15.028C2.096 26.72.204 28.1.204 24.972zM38.87 8.155c0-1.633-1.19-2.738-3.405-3.162l-3.405-.65 2.97 3.162c3.584 3.814 3.84 3.857 3.84.65z"/></svg>