<svg xmlns="http://www.w3.org/2000/svg" width="82.667" height="80" viewBox="0 0 82.666664 80"><path d="M3.339 79.444c-3.39-.705-4.036-4.124-1-5.29 1.44-.552 2-2.806 2-8.045 0-11.289 1.099-12.437 11.901-12.437h9.14l.903-5c.496-2.75 1.312-13.76 1.812-24.468.627-13.397 1.481-20.154 2.74-21.667C32.41.647 35.97.34 56.236.34c16.555 0 24.047.476 25.17 1.6.88.88 1.6 4.48 1.6 8 0 5.996-.217 6.4-3.45 6.4h-3.451l.313 13.667c.32 13.958-1.862 32.778-4.362 37.63-3.174 6.162-5.268 7.37-12.776 7.37-5.184 0-7.77.625-8.882 2.146-1.308 1.788-5.123 2.211-22.814 2.531-11.684.211-22.594.104-24.244-.24zm42.826-7.438c1.67-6.23.942-12.793-1.493-13.464-1.283-.353-9.533-.244-18.333.244l-16 .886v15.324l17.511.005c17.035.004 17.533-.077 18.315-2.995zm9.07-7.66c-.608-6.372-2.896-5.79-2.896.738 0 2.832.651 4.588 1.702 4.588 1.18 0 1.546-1.63 1.194-5.326zm10.992 2.993c2.454-7.802 3.838-19.662 4.59-39.335l.855-22.336-14-.264c-15.932-.3-21.325-.184-21.985.476-.254.254-.754 8.86-1.113 19.127-.359 10.266-1.245 20.915-1.97 23.665l-1.318 5h12.431c14.346 0 16.622 1.26 16.622 9.207 0 2.758.4 5.416.889 5.904 1.654 1.655 4.26.902 4.999-1.444zM39.923 47.363c-6.24-.648-5.928-3.35.522-4.515 4.073-.736 4.168-.843.894-1-2.213-.106-3.667-.933-3.667-2.087 0-1.062 1.63-2.158 3.667-2.467l3.667-.555-3.667-.2c-4.832-.263-4.832-3.846 0-4.578l3.667-.556-3.667-.2c-4.663-.254-5.093-4.2-.458-4.2 2.573 0 3.067-.538 2.497-2.72-.682-2.609-.223-2.705 11.11-2.334 10.015.329 11.89.744 12.267 2.721.283 1.48-.38 2.334-1.815 2.334-1.74 0-1.919.412-.776 1.789.817.984 1.09 2.184.608 2.667-.483.482-.177.877.678.877.856 0 1.556 1.2 1.556 2.667 0 1.87-.896 2.672-3 2.687-1.661.011-2.377.457-1.603 1 .768.539 1.528 2.93 1.688 5.313l.29 4.333-9.688-.224c-5.328-.123-11.975-.462-14.77-.752zm2.083-29.298c-1.65-.318-3-1.436-3-2.485 0-1.372 1.685-1.908 6-1.908 5.11 0 6 .395 6 2.667 0 2.713-1.941 3.085-9 1.726zM77.222 6.672c-.37-.916-.672-.166-.672 1.667s.302 2.583.672 1.667c.37-.917.37-2.417 0-3.334z"/></svg>