<svg xmlns="http://www.w3.org/2000/svg" width="53.333" height="80" viewBox="0 0 53.333332 80"><path d="M10.598 59.55C5.142 48.115.678 38.118.678 37.333c0-.784 2.741-6.102 6.091-11.817l6.092-10.39-3.425-5.844C7.552 6.068 6.011 2.741 6.011 1.889c0-1.111 5.856-1.55 20.667-1.55 12.51 0 20.667.512 20.667 1.298 0 .713-1.287 3.945-2.859 7.181l-2.859 5.884 6.192 10.2c3.406 5.609 6.192 11.083 6.192 12.165 0 1.082-4.456 11.26-9.902 22.62l-9.902 20.652H20.52zm15.413 1.105c0-16.368-.114-17.067-3-18.333-2.22-.974-3.109-2.64-3.42-6.41-.52-6.327 1.506-8.906 6.995-8.906 6.566 0 9.028 2.519 8.522 8.72-.322 3.959-1.18 5.609-3.43 6.596-2.886 1.266-3 1.965-3 18.333 0 9.36.508 17.017 1.13 17.017.965 0 20.203-38.63 20.203-40.57 0-.38-2.787-5.207-6.193-10.727l-6.194-10.036H16.931l-6.163 10.513-6.164 10.514 8.154 17.153c4.484 9.434 8.686 18.503 9.337 20.153 2.723 6.903 3.916 2.634 3.916-14.017zm4.186-22.484c2.925-2.647 1.14-7.165-2.833-7.165-3.84 0-5.643 4.136-3.052 6.999 2.592 2.864 2.894 2.873 5.885.166zM40.678 8.34l2.72-5.333H27.373c-8.815 0-16.027.379-16.027.842 0 .464 1.249 2.864 2.775 5.334 2.772 4.485 2.788 4.49 13.306 4.49h10.531z"/></svg>