<svg xmlns="http://www.w3.org/2000/svg" width="48" height="81.333" viewBox="0 0 48 81.333336"><path d="M2.551 78.596C.617 76.458.345 71.877.345 41.495c0-43.564-1.85-40.461 24.122-40.461 26.11 0 23.878-3.785 23.878 40.476 0 26.474-.434 36.758-1.6 37.924-1.104 1.103-7.866 1.6-21.794 1.6-17.87 0-20.447-.28-22.4-2.438zm42.62-2.22c1.068-1.46 1.768-3.86 1.557-5.332-.366-2.552-1.374-2.677-21.717-2.677H3.678v3.96c0 6.298 3.953 7.508 23.11 7.077 14.642-.33 16.656-.661 18.384-3.027zm-23.933-1.233c-1.01-2.63 2.586-6.225 5.216-5.216 1.15.441 1.856 2.009 1.628 3.61-.484 3.387-5.692 4.61-6.844 1.606zm25.107-33.705V17.701H3.678l-.367 22.617c-.202 12.44-.128 23.24.164 24 .34.89 8.078 1.289 21.7 1.12l21.17-.263zm.666-29.44c0-1.304-.934-3.704-2.075-5.334C42.966 3.853 41.944 3.7 25.03 3.7c-19.366 0-22.02.895-22.02 7.428v3.238h22c20.193 0 22-.194 22-2.37zm-32-1.63c0-.771 4.223-1.334 10-1.334 5.778 0 10 .563 10 1.333s-4.222 1.334-10 1.334c-5.777 0-10-.563-10-1.334z"/></svg>