<svg xmlns="http://www.w3.org/2000/svg" width="80" height="80" viewBox="0 0 80 80"><path d="M21.68 79.202C.036 75.594-6.719 64.217 8.612 57.198c7-3.205 22.47-6.054 20.309-3.74-.593.635-4.67 1.887-9.06 2.782C9.49 58.356 2.38 62.662 2.926 66.498 3.801 72.624 21.15 78.011 40 78.011c18.85 0 36.199-5.387 37.073-11.513.547-3.836-6.563-8.142-16.934-10.258-10.284-2.097-12.302-4.18-3.036-3.133 10.054 1.137 21.244 6.499 22.294 10.684 1.2 4.78-1.163 8.17-7.905 11.34-10.859 5.103-32.839 6.9-49.813 4.07zm3.24-7.904c-10.304-2.592-12.563-5.45-7.752-9.804 2.786-2.521 12.165-4.526 12.165-2.6 0 .677-2.7 1.953-6 2.836-12.615 3.374-3.332 7.615 16.667 7.615 13.451 0 22.667-1.966 22.667-4.834 0-.647-2.7-1.899-6-2.781-7.163-1.916-8.046-4.4-1.168-3.283 5.238.85 9.834 4.202 9.834 7.172 0 3.369-9.435 6.088-22.666 6.531-6.967.234-14.953-.15-17.747-.852zM32 57.55c0-5.599-.611-7.67-2.85-9.666-3.762-3.352-6.483-9.997-6.483-15.83v-4.71h32v4.71c0 5.833-2.721 12.478-6.483 15.83-2.24 1.995-2.85 4.067-2.85 9.666v7.127H32zm10.667-2.225c0-5.775.556-7.182 4.082-10.333 2.92-2.61 4.299-5.262 4.842-9.315l.76-5.667H24.982l.76 5.667c.544 4.053 1.922 6.705 4.842 9.315 3.527 3.15 4.083 4.558 4.083 10.333 0 6.54.087 6.685 4 6.685 3.912 0 4-.146 4-6.685zM30.564 20.78c-5.24-5.24-5.24-10.966 0-16.206 2.66-2.66 5.233-3.897 8.103-3.897 5.736 0 12 6.264 12 12s-6.264 12-12 12c-2.87 0-5.443-1.237-8.103-3.897zm14.35-1.669C46.611 17.518 48 14.79 48 13.052c0-3.909-5.575-9.707-9.333-9.707-3.68 0-9.334 5.767-9.334 9.52 0 4.07 5.076 9.146 9.147 9.146 1.841 0 4.737-1.304 6.434-2.899z"/></svg>