<svg xmlns="http://www.w3.org/2000/svg" width="66.667" height="81.333" viewBox="0 0 66.666664 81.333336"><path d="M10.908 77.567c1.776-1.479 5.826-3.383 9-4.232 7.648-2.046 7.693-5.24.103-7.333-3.116-.859-7.766-2.899-10.333-4.533-2.567-1.634-5.717-2.817-7-2.63-3.454.503-2.718-1.406 1.973-5.122 4.135-3.275 4.154-3.277 3.385-.334-1.437 5.495 9.99 10.962 22.912 10.962 19.698 0 34.866-17.21 33.029-37.473-.912-10.052-6.519-20.394-10.39-19.165-3.48 1.105-3.247-.933.51-4.463 3.541-3.327 5.534-3.77 4.468-.993-.402 1.049 1.183 5.399 3.524 9.667 3.784 6.9 4.256 8.942 4.256 18.427 0 9.341-.494 11.557-3.973 17.839C57.563 56.866 49.22 63.532 40.3 65.819c-4.877 1.25-6.621 2.332-6.621 4.111 0 1.594.99 2.415 2.912 2.415 3.565 0 14.421 5.108 14.421 6.785 0 .683-9.493 1.195-21.666 1.17l-21.667-.044zm31.588-.263c.385-.384-2.342-1.351-6.06-2.148-6.716-1.44-20.846.221-19.562 2.301.637 1.032 24.58.889 25.622-.153zm-11.485-8.371c0-1.144-.6-1.708-1.333-1.255-.733.453-1.333 1.389-1.333 2.079 0 .69.6 1.254 1.333 1.254s1.333-.935 1.333-2.078zM17.678 53.746c-6.444-3.425-10.217-7.79-12.622-14.607-3.745-10.614-1.667-19.523 6.447-27.636C20.417 2.588 30.249.899 41.265 6.389c16.224 8.084 20.01 27.877 7.96 41.602-2.295 2.613-6.112 5.561-8.483 6.552-6.138 2.565-17.477 2.173-23.064-.797zm22.4-1.949c1.98-1.035 5.212-3.585 7.182-5.667 15.858-16.76-.612-45.124-22.743-39.165-10.142 2.73-18.78 13.485-18.78 23.38 0 4.83 3.948 13.823 7.422 16.907 7.162 6.357 19.471 8.436 26.919 4.545z"/></svg>