<svg xmlns="http://www.w3.org/2000/svg" width="77.333" height="78.667" viewBox="0 0 77.333336 78.666664"><path d="M0 71.333c0-5.777.356-6.666 2.667-6.666 2.573 0 2.666-.89 2.666-25.334S5.24 14 2.667 14C.356 14 0 13.111 0 7.333V.667h6.667c5.777 0 6.666.355 6.666 2.666 0 2.573.89 2.667 25.334 2.667S64 5.906 64 3.333c0-2.31.889-2.666 6.667-2.666h6.666v6.666c0 5.778-.355 6.667-2.666 6.667C72.094 14 72 14.889 72 39.333c0 24.445.094 25.334 2.667 25.334 2.31 0 2.666.889 2.666 6.666V78h-6.666C64.889 78 64 77.644 64 75.333c0-2.573-.889-2.666-25.333-2.666-24.445 0-25.334.093-25.334 2.666 0 2.311-.889 2.667-6.666 2.667H0zm10.667 0c0-3.555-.445-4-4-4-3.556 0-4 .445-4 4 0 3.556.444 4 4 4 3.555 0 4-.444 4-4zm64 0c0-3.555-.445-4-4-4-3.556 0-4 .445-4 4 0 3.556.444 4 4 4 3.555 0 4-.444 4-4zm-10.667-4c0-1.777.889-2.666 2.667-2.666 2.573 0 2.666-.89 2.666-25.334S69.24 14 66.667 14C64.889 14 64 13.111 64 11.333c0-2.573-.889-2.666-25.333-2.666-24.445 0-25.334.093-25.334 2.666 0 1.778-.889 2.667-2.666 2.667C8.094 14 8 14.889 8 39.333c0 24.445.094 25.334 2.667 25.334 1.777 0 2.666.889 2.666 2.666 0 2.573.89 2.667 25.334 2.667S64 69.906 64 67.333zm-53.333-60c0-3.555-.445-4-4-4-3.556 0-4 .445-4 4 0 3.556.444 4 4 4 3.555 0 4-.444 4-4zm64 0c0-3.555-.445-4-4-4-3.556 0-4 .445-4 4 0 3.556.444 4 4 4 3.555 0 4-.444 4-4z"/></svg>