<svg xmlns="http://www.w3.org/2000/svg" preserveAspectRatio="xMidYMid" width="32" height="32" viewBox="0 0 32 32"><path d="M16 32C7.164 32 0 24.837 0 16 0 7.164 7.164 0 16 0c8.837 0 16 7.164 16 16 0 8.837-7.163 16-16 16zM9.788 7.468a1.597 1.597 0 0 0-1.154-.469 1.6 1.6 0 0 0-1.15.46 1.484 1.484 0 0 0-.476 1.109c0 .45.16.834.481 1.149.321.315.709.473 1.164.473a1.58 1.58 0 0 0 1.14-.464c.318-.309.477-.683.477-1.122a1.53 1.53 0 0 0-.482-1.136zm.487 3.525H7V23h3.275V10.993zM25 15.438c0-1.42-.49-2.494-1.351-3.219-1.025-.854-2.035-1.281-3.504-1.281-.717 0-1.181.115-1.866.347-.684.231-1.431.718-2.274 1.309v-1.601H12.73V23l3.258-.002V18.64c0-1.283.054-2.116.163-2.502.208-.74.582-1.319 1.121-1.738.539-.419 1.184-.628 1.936-.628.58 0 1.067.126 1.461.379.394.253.67.621.829 1.104.158.484.238 1.46.238 2.933v4.81H25v-7.56z" class="img-socials"/></svg>