<svg xmlns="http://www.w3.org/2000/svg" width="56" height="80" viewBox="0 0 56 80"><path d="M18.667 68.323c-4.034-6.037-9.884-16.056-13-22.263C1.024 36.814 0 33.428 0 27.33 0 17.537 4.158 9.306 11.782 4.008 17.01.373 18.562-.011 28-.011c9.439 0 10.99.384 16.218 4.018 12.994 9.03 15.166 23.948 6.14 42.159C43.63 59.737 30.418 79.322 28 79.31c-1.1-.005-5.3-4.949-9.333-10.987zm17.492-6.007c18.363-28.582 20.44-38.811 10.237-50.432-5.503-6.267-10.9-8.87-18.396-8.87s-12.893 2.603-18.396 8.87C1.698 20.89 1.535 29.21 8.977 43.966 12.85 51.65 27.004 73.976 28 73.976c.367 0 4.038-5.247 8.159-11.66zM18.763 35.809c-6.78-8.62-1.43-20.487 9.237-20.487s16.017 11.867 9.237 20.487c-2.308 2.933-3.832 3.513-9.237 3.513s-6.93-.58-9.237-3.513zm12.36-.634c1.788-.814 3.952-3.022 4.81-4.907 2.258-4.954-1.852-10.28-7.933-10.28-6.09 0-10.192 5.325-7.929 10.291 1.244 2.73 4.157 5.16 7.533 6.286.149.05 1.733-.576 3.52-1.39z"/></svg>