<svg xmlns="http://www.w3.org/2000/svg" viewBox="0 0 26.666668 45.333332"><path d="M.8 43.469C.426 42.494.286 32.42.49 21.085L.858.475h25.333v44l-12.356.383c-9.327.29-12.522-.05-13.036-1.39zm10.059-2.994c0-1.334-1.334-2-4-2-2.667 0-4 .666-4 2 0 1.333 1.333 2 4 2 2.666 0 4-.667 4-2zm13.008-.334c.358-1.091-.872-1.666-3.564-1.666-2.843 0-4.11.644-4.11 2.088 0 2.541 6.824 2.166 7.674-.422zm.325-17.666v-12H2.86v24h21.333zM6.86 5.14c0-.733 3-1.333 6.666-1.333 3.667 0 6.667.6 6.667 1.333 0 .734.9 1.334 2 1.334s2-.9 2-2c0-1.612-2.074-2-10.667-2-8.592 0-10.666.388-10.666 2 0 1.1.9 2 2 2s2-.6 2-1.334z"/></svg>